<?xml version="1.0" encoding="utf-8"?>
<!-- Svg Vector Icons : http://www.onlinewebfonts.com/icon -->
<!DOCTYPE svg PUBLIC "-//W3C//DTD SVG 1.1//EN" "http://www.w3.org/Graphics/SVG/1.1/DTD/svg11.dtd">
<svg version="1.1" xmlns="http://www.w3.org/2000/svg" xmlns:xlink="http://www.w3.org/1999/xlink" x="0px" y="0px" viewBox="0 0 1000 1000" enable-background="new 0 0 1000 1000" xml:space="preserve">
<metadata> Svg Vector Icons : http://www.onlinewebfonts.com/icon </metadata>
<g><g transform="translate(0.000000,511.000000) scale(0.100000,-0.100000)"><path d="M4686.2,4975.1c-341.9-90.9-608.8-292.5-804.4-598.9c-17.8-29.6-31.6-29.6-138.4-4c-168,41.5-409.1,37.5-591-9.9c-355.8-90.9-664.1-336-818.3-652.2c-45.5-92.9-96.9-221.4-112.7-286.6c-37.6-150.2-37.6-462.5,0-612.7c43.5-170,170-417.1,276.7-539.6c96.9-108.7,286.6-253,409.2-312.3l73.1-33.6l5.9-940.8c5.9-921.1,5.9-942.8,49.4-1019.9c49.4-92.9,146.3-187.8,243.1-239.2c65.2-35.6,148.2-37.5,1719.6-37.5h1650.4l104.7,59.3c116.6,63.3,203.6,172,239.2,296.5c13.8,53.4,21.7,383.4,21.7,978.4v899.3l130.4,69.2c264.9,140.3,504,423,600.9,707.6c239.2,717.5-172,1478.5-901.3,1664.2c-181.8,47.4-423,51.4-591,9.9c-106.7-25.7-120.6-25.7-138.3,4c-179.9,284.6-405.2,468.4-707.6,573.2C5206.1,5018.6,4887.8,5030.4,4686.2,4975.1z M5352.3,4660.8c251-94.9,430.9-266.8,555.4-527.7l79.1-162.1l132.4,55.3c193.7,81,365.7,106.7,533.7,81c264.8-41.5,421-122.5,602.8-314.3c361.7-379.5,361.7-960.6,2-1348c-122.5-134.4-229.3-203.6-409.1-268.8l-120.6-43.5l-5.9-614.7l-4-614.7H4998.5H3278.9l-4,614.7l-5.9,614.7l-122.5,45.4c-691.8,249-895.4,1089.1-397.3,1622.7c154.2,164.1,369.6,274.7,593,306.4c215.4,27.7,361.7-2,664.1-134.4c11.9-5.9,23.7,0,23.7,11.9c0,43.5,120.6,274.7,189.8,367.6c90.9,118.6,272.8,253,419,306.4C4852.3,4739.9,5142.8,4741.9,5352.3,4660.8z"/><path d="M3419.3-618.5c-45.5-9.9-122.5-39.5-168-67.2c-43.5-25.7-282.7-251-529.7-500.1c-504-506-535.6-551.5-535.6-776.8c0-235.2,21.7-264.9,634.5-873.6c610.8-606.8,628.5-620.6,873.6-616.7c162.1,2,280.7,53.4,415.1,177.9l98.8,92.9l126.5-136.4c71.2-75.1,128.5-146.3,130.5-158.1c0-13.8-181.8-185.8-403.2-383.5c-223.4-197.7-409.1-373.6-415.1-389.4c-41.5-104.8,2-191.7,179.9-363.7c189.7-185.8,256.9-211.5,363.7-140.3c29.6,17.8,201.6,199.6,383.4,405.2c179.9,203.6,336,369.6,343.9,369.6s170-170,359.7-379.5c211.5-231.3,367.6-387.4,407.2-405.2c146.3-59.3,258.9-23.7,440.8,144.3c227.3,209.5,290.5,377.5,203.6,535.7c-19.8,33.6-217.4,223.3-436.8,423l-403.2,359.7l193.7,193.7l191.7,193.7l92.9-47.5c168-85,324.2-114.6,563.3-102.8c237.2,9.9,413.1,59.3,608.8,175.9c310.3,181.8,547.5,496.1,636.4,845.9c43.5,166,43.5,446.7,0,612.7C7649-938.7,7218.2-610.6,6698.3-610.6c-235.2,2-355.8-27.7-593-140.3c-156.1-75.1-213.5-116.6-355.8-260.9c-136.4-136.4-187.8-203.6-253-338c-106.7-217.4-148.2-383.5-148.2-602.9c0-191.7,35.6-349.8,114.6-506l45.5-90.9l-205.6-205.5l-205.5-205.6l-168,168l-166,166l88.9,94.9c126.5,136.4,185.8,270.8,185.8,432.9c0,231.3-41.5,290.5-646.3,889.4c-470.4,466.5-541.6,529.7-628.5,557.4C3628.8-608.6,3522-598.7,3419.3-618.5z M3670.3-922.9c29.6-15.8,280.7-258.9,559.4-539.6c533.7-537.6,547.5-555.4,517.8-701.7c-9.9-45.5-69.2-122.5-205.6-262.9l-193.7-199.6l260.9-258.9c144.3-140.3,529.7-498.1,859.8-794.6c328.1-294.5,596.9-547.5,596.9-561.3c0-29.6-219.4-251-251-251c-13.8,0-253,255-531.7,567.3c-278.7,314.3-636.4,701.7-794.6,861.8L4202-2768.9l-179.9-177.9c-98.8-96.9-199.6-187.8-223.4-199.6c-23.7-11.8-85-21.7-136.4-21.7h-94.9l-539.6,539.6c-577.1,573.2-587,589-551.5,739.2c15.8,59.3,822.2,887.5,930.9,956.6C3478.6-889.3,3595.2-883.3,3670.3-922.9z"/><path d="M3470.7-1148.2c-51.4-51.4-92.9-102.8-92.9-112.7c0-11.9,209.5-229.3,464.5-484.2l464.5-464.5l102.8,104.8l104.8,102.8l-474.4,474.4l-474.4,474.4L3470.7-1148.2z"/><path d="M3095.1-1523.7l-92.9-92.9l474.4-474.4l474.4-474.4l98.8,98.8l98.8,98.8l-468.4,468.4c-258.9,258.9-474.4,470.4-480.3,470.4C3193.9-1428.8,3146.5-1470.4,3095.1-1523.7z"/><path d="M2735.4-1883.5l-98.8-98.8l474.4-474.4l474.4-474.4l98.8,98.8l98.8,98.8L3308.6-2259l-474.4,474.4L2735.4-1883.5z"/></g></g>
</svg>